HIERARCHY
ROOT Hips
{
	OFFSET 0.000000 0.000000 0.000000
	CHANNELS 6 Xposition Yposition Zposition Zrotation Yrotation Xrotation 
	JOINT LowerBack
	{
		OFFSET 0.000000 0.000000 0.000000
		CHANNELS 3 Zrotation Yrotation Xrotation
		JOINT Spine
		{
			OFFSET 0.028270 2.035590 -0.193380
			CHANNELS 3 Zrotation Yrotation Xrotation
			JOINT Spine1
			{
				OFFSET 0.056720 2.048850 -0.042750
				CHANNELS 3 Zrotation Yrotation Xrotation
				JOINT Neck
				{
					OFFSET 0.000000 0.000000 0.000000
					CHANNELS 3 Zrotation Yrotation Xrotation
					JOINT Neck1
					{
						OFFSET -0.054170 1.746240 0.172020
						CHANNELS 3 Zrotation Yrotation Xrotation
						JOINT Head
						{
							OFFSET 0.104070 1.761360 -0.123970
							CHANNELS 3 Zrotation Yrotation Xrotation
							End Site
							{
								OFFSET 0.000000 0.000000 0.000000
							}
						}
					}
				}
				JOINT LeftShoulder
				{
					OFFSET 0.000000 0.000000 0.000000
					CHANNELS 3 Zrotation Yrotation Xrotation
					JOINT LeftArm
					{
						OFFSET 3.362410 1.200890 -0.311210
						CHANNELS 3 Zrotation Yrotation Xrotation
						JOINT LeftForeArm
						{
							OFFSET 4.983000 -0.000000 -0.000000
							CHANNELS 3 Zrotation Yrotation Xrotation
							JOINT LeftHand
							{
								OFFSET 3.483560 -0.000000 -0.000000
								CHANNELS 3 Zrotation Yrotation Xrotation
								JOINT LeftFingerBase
								{
									OFFSET 0.000000 0.000000 0.000000
									CHANNELS 3 Zrotation Yrotation Xrotation
									JOINT LeftHandIndex1
									{
										OFFSET 0.715260 -0.000000 -0.000000
										CHANNELS 3 Zrotation Yrotation Xrotation
										End Site
										{
											OFFSET 0.000000 0.000000 0.000000
										}
									}
								}
								JOINT LThumb
								{
									OFFSET 0.000000 0.000000 0.000000
									CHANNELS 3 Zrotation Yrotation Xrotation
									End Site
									{
										OFFSET 0.000000 0.000000 0.000000
									}
								}
							}
						}
					}
				}
				JOINT RightShoulder
				{
					OFFSET 0.000000 0.000000 0.000000
					CHANNELS 3 Zrotation Yrotation Xrotation
					JOINT RightArm
					{
						OFFSET -3.136600 1.374050 -0.404650
						CHANNELS 3 Zrotation Yrotation Xrotation
						JOINT RightForeArm
						{
							OFFSET -5.241900 -0.000000 -0.000000
							CHANNELS 3 Zrotation Yrotation Xrotation
							JOINT RightHand
							{
								OFFSET -3.444170 -0.000000 -0.000000
								CHANNELS 3 Zrotation Yrotation Xrotation
								JOINT RightFingerBase
								{
									OFFSET 0.000000 0.000000 0.000000
									CHANNELS 3 Zrotation Yrotation Xrotation
									JOINT RightHandIndex1
									{
										OFFSET -0.622530 -0.000000 -0.000000
										CHANNELS 3 Zrotation Yrotation Xrotation
										End Site
										{
											OFFSET 0.000000 0.000000 0.000000
										}
									}
								}
								JOINT RThumb
								{
									OFFSET 0.000000 0.000000 0.000000
									CHANNELS 3 Zrotation Yrotation Xrotation
									End Site
									{
										OFFSET 0.000000 0.000000 0.000000
									}
								}
							}
						}
					}
				}
			}
		}
	}
}
}
MOTION
Frames: 15
Frame Time: 0.008333
4.702532 17.439656 1.173711 -176.656581 -55.974068 -164.133406 1.729354 -5.590820 2.593003 0.643464 -5.553326 -2.307152 -2.778166 -5.653539 0.190324 15.415233 -14.128429 -4.398025 0.246748 -0.039116 0.854329 0.000000 0.000000 0.000000 28.371506 -10.058241 3.040042 15.671056 -19.296141 -64.786822 0.984341 -3.800705 -0.218189 27.074976 -6.453725 -1.803086 -1.086106 0.747823 -0.000000 0.000000 0.000000 0.000000 0.000000 0.000000 0.000000 3.725613 -13.311507 -2.164010 62.995814 20.683707 34.083507 179.687656 72.920133 179.954238 -8.156471 5.361735 -0.424119 0.186781 -0.460162 0.000000 0.000000 0.000000 0.000000 0.000000 0.000000 0.000000 
4.715145 17.438884 1.179555 -176.789063 -55.981026 -163.976437 1.742339 -5.577186 2.677980 0.617450 -5.541840 -2.261937 -2.890046 -5.638894 0.267761 15.408997 -14.239574 -4.405368 0.178241 -0.043329 0.849556 0.000000 0.000000 0.000000 28.489759 -9.722262 2.941528 14.811854 -19.888238 -63.032585 1.004132 -6.006807 -0.227579 26.407987 -4.742490 -1.328395 -1.049884 0.703849 -0.000000 0.000000 0.000000 0.000000 0.000000 0.000000 0.000000 3.900628 -13.337566 -2.187637 63.423841 20.209901 33.831256 179.682980 72.933387 179.953966 -8.145892 5.368163 -0.424192 0.186243 -0.462831 0.000000 0.000000 0.000000 0.000000 0.000000 0.000000 0.000000 
4.727949 17.438287 1.184248 -176.933568 -55.995414 -163.823042 1.771104 -5.548236 2.751491 0.587364 -5.517005 -2.219838 -3.024646 -5.610134 0.332026 15.366700 -14.351945 -4.372403 0.093426 -0.049417 0.856162 0.000000 0.000000 0.000000 28.544947 -9.501262 2.826963 13.818623 -20.325257 -60.582105 0.990954 -8.642953 -0.234309 25.419927 -2.857115 -0.823868 -0.997085 0.656110 -0.000000 0.000000 0.000000 0.000000 0.000000 0.000000 0.000000 4.078427 -13.359300 -2.199855 63.880349 19.687925 33.576631 179.675597 72.918278 179.953686 -8.129857 5.386223 -0.424958 0.185855 -0.466371 0.000000 0.000000 0.000000 0.000000 0.000000 0.000000 0.000000 
4.740957 17.437836 1.188005 -177.089201 -56.017518 -163.675403 1.820144 -5.504741 2.815227 0.553372 -5.479841 -2.180245 -3.185030 -5.568185 0.384533 15.288967 -14.463866 -4.299236 -0.007088 -0.057310 0.873988 0.000000 0.000000 0.000000 28.526561 -9.364341 2.690548 12.757933 -20.639863 -57.877386 0.976077 -11.638093 -0.238235 24.278136 -1.096317 -0.383603 -0.931015 0.615760 -0.000000 0.000000 0.000000 0.000000 0.000000 0.000000 0.000000 4.260577 -13.382253 -2.200218 64.365540 19.131996 33.325049 179.665711 72.885020 179.953400 -8.108431 5.416020 -0.426220 0.185554 -0.470675 0.000000 0.000000 0.000000 0.000000 0.000000 0.000000 0.000000 
4.754148 17.437423 1.191063 -177.253507 -56.046202 -163.537086 1.892612 -5.448542 2.873509 0.516253 -5.432243 -2.142600 -3.370605 -5.514949 0.425597 15.176646 -14.573498 -4.187453 -0.121470 -0.066822 0.902455 0.000000 0.000000 0.000000 28.423425 -9.278829 2.526588 11.668753 -20.873112 -55.200288 0.976029 -14.944251 -0.239265 23.088537 0.365100 -0.049299 -0.855493 0.588677 -0.000000 0.000000 0.000000 0.000000 0.000000 0.000000 0.000000 4.443741 -13.409069 -2.188780 64.880178 18.554409 33.081694 179.653837 72.845515 179.953114 -8.082673 5.453878 -0.427978 0.185281 -0.475521 0.000000 0.000000 0.000000 0.000000 0.000000 0.000000 0.000000 
4.767439 17.436996 1.193623 -177.423395 -56.079432 -163.408403 1.988373 -5.382461 2.929518 0.476640 -5.376811 -2.106394 -3.579234 -5.453041 0.455785 15.034605 -14.679395 -4.040862 -0.247467 -0.077695 0.940396 0.000000 0.000000 0.000000 28.241642 -9.196645 2.322171 10.554119 -21.092009 -52.755056 1.004803 -18.512731 -0.239071 22.059441 1.451216 0.174331 -0.778855 0.576499 -0.000000 0.000000 0.000000 0.000000 0.000000 0.000000 0.000000 4.628359 -13.442048 -2.165640 65.420516 17.972090 32.853183 179.640138 72.810888 179.952844 -8.053583 5.499543 -0.430033 0.185037 -0.480762 0.000000 0.000000 0.000000 0.000000 0.000000 0.000000 0.000000 
4.780804 17.436461 1.195883 -177.596589 -56.114489 -163.290275 2.106476 -5.309594 2.987940 0.435522 -5.316359 -2.071933 -3.806466 -5.385420 0.472259 14.866231 -14.777559 -3.862086 -0.382128 -0.089652 0.987020 0.000000 0.000000 0.000000 27.981935 -9.095553 2.070289 9.396717 -21.320342 -50.578068 1.059251 -22.330826 -0.238913 21.287131 2.193588 0.311677 -0.706003 0.576514 -0.000000 0.000000 0.000000 0.000000 0.000000 0.000000 0.000000 4.808276 -13.478643 -2.130776 65.985996 17.393823 32.645288 179.625128 72.791135 179.952585 -8.022483 5.549619 -0.432386 0.184801 -0.486192 0.000000 0.000000 0.000000 0.000000 0.000000 0.000000 0.000000 
4.794052 17.435758 1.197954 -177.768408 -56.148163 -163.182022 2.244190 -5.232696 3.052018 0.393788 -5.253282 -2.039947 -4.047156 -5.314690 0.471825 14.676227 -14.863857 -3.654450 -0.522175 -0.102385 1.041362 0.000000 0.000000 0.000000 27.649908 -8.964494 1.767733 8.169516 -21.563607 -48.654655 1.129668 -26.390952 -0.239963 20.832122 2.658535 0.390729 -0.640229 0.584748 -0.000000 0.000000 0.000000 0.000000 0.000000 0.000000 0.000000 4.977355 -13.515637 -2.084344 66.573870 16.824852 32.461891 179.609447 72.795031 179.952336 -7.991478 5.601198 -0.434737 0.184571 -0.491620 0.000000 0.000000 0.000000 0.000000 0.000000 0.000000 0.000000 
4.807288 17.434842 1.199906 -177.938644 -56.177555 -163.082663 2.397080 -5.154020 3.124681 0.352217 -5.189384 -2.011261 -4.295456 -5.242919 0.451251 14.470309 -14.932745 -3.421938 -0.664334 -0.115587 1.102319 0.000000 0.000000 0.000000 27.252829 -8.804574 1.417879 6.848303 -21.809338 -46.943568 1.201135 -30.681811 -0.242830 20.701471 2.927947 0.435682 -0.582798 0.597005 -0.000000 0.000000 0.000000 0.000000 0.000000 0.000000 0.000000 5.129980 -13.547764 -2.027172 67.180680 16.266117 32.303958 179.593930 72.827264 179.952099 -7.962015 5.652318 -0.437087 0.184300 -0.496906 0.000000 0.000000 0.000000 0.000000 0.000000 0.000000 0.000000 
4.820234 17.433697 1.201703 -178.105752 -56.200367 -162.987331 2.558418 -5.073920 3.206675 0.311130 -5.124501 -1.986570 -4.545686 -5.170191 0.409336 14.254933 -14.982498 -3.169924 -0.805503 -0.128942 1.168387 0.000000 0.000000 0.000000 26.802023 -8.624690 1.029812 5.413115 -22.043831 -45.401575 1.256746 -35.176640 -0.247209 20.834844 3.031892 0.454636 -0.532714 0.610961 -0.000000 0.000000 0.000000 0.000000 0.000000 0.000000 0.000000 5.261950 -13.573011 -1.960376 67.801426 15.714677 32.169333 179.579455 72.887930 179.951856 -7.936502 5.697766 -0.439236 0.183980 -0.501862 0.000000 0.000000 0.000000 0.000000 0.000000 0.000000 0.000000 
4.832939 17.432321 1.203365 -178.267676 -56.214929 -162.895825 2.723848 -4.993644 3.298731 0.271516 -5.059524 -1.966126 -4.791750 -5.097680 0.346690 14.034811 -15.006112 -2.904043 -0.942864 -0.142160 1.237983 0.000000 0.000000 0.000000 26.304705 -8.435303 0.619536 3.859040 -22.243644 -43.982713 1.280428 -39.837550 -0.252533 21.159501 3.051516 0.462290 -0.489183 0.623470 -0.000000 0.000000 0.000000 0.000000 0.000000 0.000000 0.000000 5.367695 -13.584343 -1.886973 68.432206 15.167002 32.054770 179.567278 72.975810 179.951588 -7.916159 5.740436 -0.441486 0.183490 -0.506497 0.000000 0.000000 0.000000 0.000000 0.000000 0.000000 0.000000 
4.845253 17.430716 1.204761 -178.426638 -56.220193 -162.801497 2.885700 -4.911685 3.398472 0.233520 -4.992452 -1.949884 -5.028069 -5.023540 0.266755 13.814624 -15.005624 -2.631569 -1.074191 -0.154970 1.309083 0.000000 0.000000 0.000000 25.772616 -8.246260 0.203520 2.186410 -22.404143 -42.650044 1.260919 -44.604135 -0.257743 21.569248 2.984396 0.455545 -0.450562 0.634117 -0.000000 0.000000 0.000000 0.000000 0.000000 0.000000 0.000000 5.444844 -13.582496 -1.809311 69.067121 14.619048 31.954999 179.558256 73.086812 179.951282 -7.902519 5.775184 -0.443337 0.182798 -0.510650 0.000000 0.000000 0.000000 0.000000 0.000000 0.000000 0.000000 
4.857196 17.428965 1.205891 -178.580863 -56.215439 -162.704806 3.041267 -4.828580 3.505096 0.198185 -4.923636 -1.937227 -5.249684 -4.948289 0.174106 13.595718 -14.975726 -2.358565 -1.197693 -0.167157 1.379973 0.000000 0.000000 0.000000 25.211771 -8.066514 -0.197574 0.405715 -22.510577 -41.369963 1.191450 -49.416466 -0.261602 21.946750 2.895292 0.444000 -0.415606 0.641378 -0.000000 0.000000 0.000000 0.000000 0.000000 0.000000 0.000000 5.487944 -13.560799 -1.731545 69.704482 14.067642 31.864804 179.553568 73.215713 179.950915 -7.896031 5.807490 -0.445489 0.181752 -0.514443 0.000000 0.000000 0.000000 0.000000 0.000000 0.000000 0.000000 
4.868638 17.427069 1.206634 -178.732748 -56.200751 -162.599931 3.185765 -4.742668 3.614198 0.165678 -4.851158 -1.927564 -5.453157 -4.869991 0.075065 13.379099 -14.920651 -2.091585 -1.312550 -0.178570 1.448849 0.000000 0.000000 0.000000 24.628578 -7.898562 -0.568746 -1.469361 -22.570169 -40.112028 1.073190 -54.204948 -0.263209 22.198874 2.792259 0.427356 -0.383450 0.645506 -0.000000 0.000000 0.000000 0.000000 0.000000 0.000000 0.000000 5.495987 -13.521299 -1.656272 70.340448 13.512006 31.780144 179.553578 73.355360 179.950479 -7.896819 5.835188 -0.447644 0.180329 -0.517841 0.000000 0.000000 0.000000 0.000000 0.000000 0.000000 0.000000 
4.879642 17.425078 1.206895 -178.885089 -56.176786 -162.484737 3.317456 -4.653565 3.722853 0.136499 -4.774543 -1.920025 -5.636042 -4.788116 -0.024254 13.163583 -14.842995 -1.835896 -1.418485 -0.189118 1.514269 0.000000 0.000000 0.000000 24.025385 -7.742377 -0.897269 -3.420968 -22.588182 -38.849721 0.912608 -58.907573 -0.261871 22.249672 2.711314 0.411609 -0.353521 0.646382 -0.000000 0.000000 0.000000 0.000000 0.000000 0.000000 0.000000 5.467779 -13.464284 -1.586033 70.972821 12.954668 31.698703 179.558440 73.500279 179.949970 -7.904316 5.860209 -0.449902 0.178494 -0.520913 0.000000 0.000000 0.000000 0.000000 0.000000 0.000000 0.000000 
